<svg xmlns="http://www.w3.org/2000/svg" width="175" height="175" viewBox="0 0 175 183" version="1.1"><path d="" stroke="none" fill="#ec8c1c" fill-rule="evenodd"/><path d="M 79.882 3 C 68.469 9.032, 56.689 29.940, 67.060 25.759 C 74.994 22.560, 95.006 22.560, 102.940 25.759 C 109.805 28.527, 109.872 28.417, 105.896 20.956 C 97.781 5.731, 87.779 -1.173, 79.882 3 M 76.970 29.951 C 61.333 32.782, 42.294 43.945, 27.531 58.938 C 23.978 62.547, 20.710 65, 19.456 65 C 17.209 65, 14.086 67.908, 11.937 72 C 11.215 73.375, 10.323 79.450, 9.956 85.500 C 9.588 91.550, 8.516 100.100, 7.572 104.500 C 6.622 108.931, 5.765 117.766, 5.649 124.305 C 5.489 133.437, 5.109 136.320, 3.971 137.039 C 2.734 137.821, 2.775 137.972, 4.231 137.985 C 5.301 137.994, 6.192 139.051, 6.564 140.750 C 6.895 142.262, 7.578 144.805, 8.083 146.399 C 9.545 151.022, 9.257 151.659, 4.421 154.493 C -1.373 157.889, -0.655 158.710, 6.136 156.455 C 10.063 155.150, 11.504 155.012, 11.804 155.911 C 12.024 156.573, 13.734 159.119, 15.603 161.566 C 19.522 166.701, 19.602 167.149, 17.250 170.747 C 15.422 173.541, 16.518 173.388, 20.076 170.350 C 21.423 169.201, 22.658 169.520, 28.576 172.552 C 54.658 185.911, 114.888 184.665, 144.938 170.144 C 150.506 167.454, 150.601 167.458, 154.721 170.601 C 159.217 174.030, 159.891 173.085, 156.062 168.723 C 152.320 164.462, 152.309 165.034, 156.250 159.006 C 159.982 153.298, 159.794 153.349, 167.508 156.003 C 170.709 157.104, 173.531 157.802, 173.780 157.554 C 174.388 156.946, 164.937 151, 163.363 151 C 161.415 151, 160.945 149.479, 161.929 146.365 C 162.427 144.789, 163.105 142.262, 163.436 140.750 C 163.976 138.284, 164.475 137.997, 168.269 137.974 C 172.500 137.948, 172.500 137.948, 168.592 136.192 C 164.683 134.436, 164.683 134.436, 164.469 123.468 C 164.350 117.388, 163.479 109.157, 162.514 105 C 161.557 100.875, 160.590 93, 160.366 87.500 C 159.792 73.406, 156.204 65, 150.763 65 C 149.544 65, 145.197 61.627, 140.102 56.728 C 119.148 36.578, 95.582 26.582, 76.970 29.951 M 70.950 59.093 C 69.419 61.954, 70.563 66, 72.902 66 C 75.171 66, 76.207 62.674, 74.959 59.393 C 73.838 56.445, 72.424 56.339, 70.950 59.093 M 95.667 57.667 C 95.300 58.033, 95 60.058, 95 62.167 C 95 66.759, 98.497 67.852, 99.566 63.593 C 100.500 59.873, 97.706 55.627, 95.667 57.667 M 148.200 74.200 C 146.411 75.989, 146.725 82.582, 148.693 84.550 C 150.283 86.140, 150.495 86.107, 152.193 84.010 C 156.240 79.013, 152.522 69.878, 148.200 74.200 M 17.557 77.223 C 14.576 81.478, 16.631 89.123, 20.370 87.688 C 23.180 86.610, 24.179 82.365, 22.544 78.452 C 20.865 74.433, 19.710 74.148, 17.557 77.223 M 70.500 80.426 C 48.055 85.610, 28.242 105.821, 22.616 129.272 C 21.845 132.487, 21.736 132.430, 31.750 134.026 C 41.332 135.552, 40.967 137, 31 137 C 22.215 137, 21.452 137.799, 23.955 144.381 C 24.879 146.812, 25.127 146.873, 31.813 146.312 C 39.667 145.654, 42.811 147.387, 35.754 148.484 C 27.083 149.833, 26.156 150.919, 30.331 154.841 C 32.562 156.937, 32.846 156.966, 36.957 155.515 C 43.161 153.326, 45.115 153.726, 40.760 156.294 C 26.825 164.512, 78.967 175.170, 107 169.834 C 126.118 166.194, 138.283 159.867, 133.303 156.154 C 130.288 153.905, 131.262 153.389, 135.486 154.995 C 137.688 155.832, 138.489 155.602, 140.551 153.540 C 143.918 150.173, 143.644 149.285, 138.996 148.499 C 133.655 147.597, 134.899 146, 140.942 146 C 146.046 146, 146.951 144.996, 146.986 139.298 C 146.999 137.294, 146.436 137.068, 140.750 136.786 C 133.861 136.445, 135.241 134.805, 143.334 133.714 C 148.302 133.044, 148.214 133.241, 146.496 126.645 C 137.965 93.894, 103.347 72.840, 70.500 80.426 M 71.750 83.689 C 69.067 84.391, 69.638 86.241, 73.792 90.297 C 78.549 94.942, 79.646 94.935, 80.947 90.250 C 82.946 83.053, 80.597 81.377, 71.750 83.689 M 87.689 85.250 C 89.948 95.387, 90.824 95.793, 96.961 89.540 C 101.339 85.079, 101.339 85.079, 98.604 84.040 C 93.230 81.996, 87.115 82.674, 87.689 85.250 M 58.750 88.221 C 54.122 90.902, 54.088 91.849, 58.473 95.839 C 63.703 100.598, 64.999 99.495, 64.652 90.584 C 64.466 85.796, 63.561 85.434, 58.750 88.221 M 105.665 89.675 C 104.273 98.257, 105.830 100.035, 111.059 95.833 C 115.531 92.239, 115.873 91.026, 112.933 89.190 C 107.518 85.809, 106.279 85.891, 105.665 89.675 M 45.106 97.901 C 41.248 101.505, 41.244 102.122, 45.069 104.382 C 48.784 106.576, 48.630 106.729, 49.225 100.250 C 49.781 94.192, 49.343 93.943, 45.106 97.901 M 120.548 100.200 C 121.187 106.612, 121.175 106.601, 124.931 104.382 C 128.719 102.144, 128.760 101.102, 125.195 97.687 C 120.947 93.617, 119.947 94.158, 120.548 100.200 M 34.592 111.114 C 33.067 113.695, 32.987 114.377, 34.126 115.098 C 36.406 116.541, 37.484 115.538, 37.810 111.673 C 38.190 107.180, 37.034 106.979, 34.592 111.114 M 132 111.448 C 132 115.313, 134.203 117.197, 136.287 115.113 C 137.157 114.243, 137.037 113.298, 135.799 111.257 C 133.361 107.239, 132 107.308, 132 111.448 M 49 118.782 C 49 119.212, 51.007 120.156, 53.459 120.880 C 59.514 122.668, 60.918 124.472, 57.282 125.792 C 51.775 127.793, 49.865 130.245, 54.500 129.364 C 56.700 128.946, 60.364 128.694, 62.642 128.804 C 70.059 129.161, 68.484 122.866, 60.282 119.371 C 56.830 117.900, 49 117.491, 49 118.782 M 113.500 120.502 C 101.724 124.666, 101.133 131.500, 112.549 131.500 C 120.485 131.500, 121.794 130.307, 115.969 128.383 C 111.045 126.756, 111.260 125.439, 116.870 122.865 C 124.392 119.414, 121.772 117.577, 113.500 120.502 M 80.250 134.662 C 78.325 135.439, 78.765 137.600, 81.175 139.200 C 82.617 140.158, 83.130 141.218, 82.698 142.345 C 81.717 144.901, 79.156 145.451, 77.062 143.556 C 75.923 142.526, 74.957 142.261, 74.577 142.875 C 72.993 145.438, 78.921 148.648, 82.099 146.947 C 83.514 146.190, 85.043 146.248, 87.549 147.154 C 91.052 148.421, 96.724 145.390, 94.678 143.344 C 94.287 142.953, 93.434 143.166, 92.783 143.817 C 89.199 147.401, 84.513 143.212, 87.980 139.522 C 91.913 135.334, 86.703 132.059, 80.250 134.662 M 51.547 144.342 C 49.794 145.624, 49.818 145.759, 52.078 147.342 C 56.858 150.690, 65.163 148.311, 62 144.500 C 60.450 142.633, 54.017 142.536, 51.547 144.342 M 108.441 147.500 C 105.875 149.483, 108.704 152, 113.500 152 C 115.215 152, 117.491 151.325, 118.559 150.500 C 121.125 148.517, 118.296 146, 113.500 146 C 111.785 146, 109.509 146.675, 108.441 147.500" stroke="none" fill="#fb941c" fill-rule="evenodd"/></svg>